<?xml version="1.0" standalone="no"?>
<svg xmlns="http://www.w3.org/2000/svg" viewBox="0 0 1440 320" preserveAspectRatio="none">
    <path fill="url(#grad)" fill-opacity="1" d="M0,0L48,37.3C96,75,192,149,288,192C384,235,480,245,576,218.7C672,192,768,128,864,122.7C960,117,1056,171,1152,186.7C1248,203,1344,181,1392,170.7L1440,160L1440,0L1392,0C1344,0,1248,0,1152,0C1056,0,960,0,864,0C768,0,672,0,576,0C480,0,384,0,288,0C192,0,96,0,48,0L0,0Z">
    </path>
    <defs>
        <linearGradient id="grad" x1="0%" y1="0%" x2="100%" y2="0%">
        <stop offset="0%" style="stop-color:#5b1a1a;stop-opacity:1" />
        <stop offset="100%" style="stop-color:#e1415f;stop-opacity:1" />
        </linearGradient>
    </defs>
</svg>